<svg width="233" height="330" viewBox="0 0 233 330" fill="none" xmlns="http://www.w3.org/2000/svg">
<path fill-rule="evenodd" clip-rule="evenodd" d="M-66.4822 26.5667C-67.3106 22.6913 -68.3674 18.9321 -74.3282 16.938C-74.4367 16.9002 -74.6202 16.8125 -74.7121 16.7685L-74.7124 16.7684C-76.2113 16.0232 -78.0333 16.5339 -79.8487 17.0426C-80.7261 17.2886 -81.602 17.5341 -82.4392 17.6371C-94.1338 19.0699 -96.9556 22.0793 -92.9537 28.4361C-92.1609 29.6887 -92.0092 31.2547 -91.8616 32.7783C-91.8471 32.9278 -91.8327 33.0768 -91.8177 33.2251C-91.4723 36.5841 -89.9154 41.5855 -88.7835 45.2215L-88.7835 45.2216L-88.7835 45.2216L-88.7831 45.2229C-88.6179 45.7535 -88.4618 46.2551 -88.3198 46.7181C-87.6464 48.9211 -86.4558 51.0647 -85.2902 53.1635C-84.1307 55.2511 -82.9959 57.2944 -82.4193 59.3076C-81.779 61.5428 -81.1656 63.7872 -80.5703 66.0376L-80.7601 66.1012C-81.6283 66.3922 -82.4957 66.683 -83.3175 66.8586C-94.7187 69.3063 -97.6186 71.9187 -94.1202 76.2927C-93.4339 77.1473 -93.3751 78.3007 -93.3178 79.4266L-93.3178 79.4268C-93.3114 79.5528 -93.305 79.6784 -93.2977 79.8033C-93.1532 82.3114 -91.9429 85.9286 -91.0621 88.5611C-90.9317 88.9506 -90.8086 89.3186 -90.6972 89.6582C-90.1723 91.2572 -89.1439 92.7509 -88.1371 94.2132C-87.137 95.6656 -86.1584 97.087 -85.7158 98.5498C-84.2238 103.51 -82.9788 108.563 -81.734 113.615L-81.734 113.615C-79.8508 121.259 -77.9679 128.901 -75.2305 136.218C-72.179 144.375 -68.3827 152.246 -64.5861 160.117C-61.827 165.837 -59.0677 171.557 -56.5941 177.388C-53.3255 185.102 -50.3428 192.927 -47.3603 200.752C-44.638 207.894 -41.9159 215.036 -38.9765 222.092C-36.7374 227.462 -34.6964 232.906 -32.6555 238.349C-28.4364 249.602 -24.2178 260.854 -18.2495 271.456C-13.7537 279.448 -11.4199 288.344 -9.08837 297.232C-8.28451 300.297 -7.48092 303.36 -6.58909 306.385C-5.43867 310.299 -0.773167 311.656 6.11732 310.148C9.01219 318.279 11.1835 326.688 13.3533 335.092C14.437 339.289 15.5204 343.485 16.6933 347.643C18.5788 354.335 25.8369 356.635 35.8094 353.363C44.757 350.422 43.4681 344.629 42.5889 340.678C42.5266 340.398 42.4664 340.128 42.4121 339.868C40.8976 332.62 39.1297 325.452 37.1742 318.345C40.4172 319.142 44.7402 318.742 49.8005 317.018C58.707 313.984 57.6145 308.896 56.8673 305.416C56.8139 305.167 56.7622 304.927 56.716 304.695C56.354 302.884 55.9715 301.078 55.5702 299.28C56.1009 299.127 56.6414 298.961 57.1912 298.781C57.662 298.627 58.1058 298.469 58.524 298.306C59.3389 301.002 60.115 303.714 60.8909 306.425L60.8912 306.426L60.8915 306.427L60.8918 306.428L60.8921 306.429L60.8923 306.43L60.8926 306.431L60.8929 306.432L60.8932 306.432C61.9211 310.024 62.9487 313.614 64.0652 317.164C65.8558 322.865 72.9517 324.276 82.7803 320.583C84.8874 319.79 86.4214 318.903 87.5246 317.966C90.8642 318.863 95.3734 318.374 100.646 316.362C105.085 314.669 106.95 312.519 107.594 310.353C108.374 312.982 109.167 315.604 110.006 318.206C111.522 322.902 116.528 324.709 123.618 323.194C124.114 325.097 124.62 326.995 125.147 328.884C126.929 335.266 134.115 337.369 144.085 334.089C153.027 331.15 151.832 325.625 151.016 321.848C150.957 321.578 150.901 321.317 150.85 321.067C150.131 317.514 149.345 313.984 148.502 310.472C151.345 310.618 154.741 310.044 158.541 308.694C167.409 305.539 166.193 300.306 165.362 296.729L165.362 296.727L165.361 296.724C165.302 296.468 165.244 296.221 165.193 295.984C164.891 294.604 164.579 293.227 164.256 291.854C166.833 291.772 169.811 291.155 173.096 289.972C179.669 287.606 180.722 284.217 180.502 281.22C183.19 281.224 186.357 280.637 189.89 279.42C191.549 278.849 192.862 278.212 193.895 277.534C196.866 280.817 203.016 281.263 210.991 278.415C219.866 275.248 218.732 270.266 217.957 266.865C217.902 266.625 217.849 266.392 217.802 266.169C217.341 263.99 216.85 261.822 216.331 259.664C218.74 259.473 221.515 258.875 224.584 257.85C233.514 254.871 232.733 250.556 232.201 247.611C232.163 247.402 232.126 247.199 232.094 247.004C229.021 228.241 222.907 210.478 216.488 192.817C214.511 187.385 212.077 179.667 210.432 174.451C209.768 172.344 209.232 170.645 208.907 169.67C208.785 169.307 208.55 169 208.338 168.722C208.136 168.459 207.954 168.221 207.905 167.985C205.744 159.925 202.719 151.658 199.692 143.385C198.034 138.854 196.376 134.32 194.858 129.818C194.077 127.514 192.99 125.317 191.902 123.121C191.404 122.115 190.906 121.108 190.437 120.092C190.237 117.724 189.018 115.73 187.805 113.745C187.233 112.808 186.662 111.874 186.199 110.902C182.315 102.736 179.352 94.2357 176.388 85.7349C175.313 82.6512 174.237 79.5676 173.118 76.5C171.212 71.2846 169.325 66.0622 167.439 60.8398C162.533 47.2605 157.627 33.6812 152.38 20.2259C152.007 19.2736 151.838 18.2541 151.669 17.238C151.163 14.1991 150.662 11.1909 144.75 10.1032C144.648 10.0824 144.476 10.0287 144.391 10.0019C142.992 9.55195 141.181 10.0928 139.375 10.6323C138.503 10.8924 137.633 11.1522 136.811 11.3005C128.954 12.7042 125.075 14.3316 124.491 16.6703C122.725 12.2181 120.938 7.77356 119.124 3.33946C118.673 2.23882 118.423 1.0661 118.173 -0.1034C117.423 -3.61107 116.679 -7.08972 110.572 -8.50754C110.478 -8.53133 110.292 -8.59908 110.203 -8.63446C108.748 -9.18753 106.946 -8.61998 105.147 -8.0537C104.28 -7.78041 103.413 -7.50742 102.586 -7.36083C98.5102 -6.6428 95.5194 -5.82698 93.5228 -4.8385C92.1036 -5.32023 90.3515 -4.78805 88.6027 -4.25686C87.7272 -3.99092 86.8525 -3.72524 86.0208 -3.58717C79.3363 -2.47023 75.5568 -1.07123 74.2769 0.928279C73.3106 0.299698 72.0724 -0.222996 70.4654 -0.602817C70.3713 -0.626613 70.1855 -0.694333 70.0967 -0.729715C68.6376 -1.2942 66.8371 -0.722955 65.0404 -0.152949C64.1728 0.122294 63.3062 0.397245 62.4794 0.543896C55.3714 1.79607 51.568 3.35863 50.5924 5.62923C49.5371 5.68995 48.3993 6.04418 47.2628 6.39797C46.3929 6.66879 45.5238 6.93935 44.6932 7.07778C35.878 8.53384 32.1435 10.5627 32.5831 13.9298C32.1546 14.0356 31.7313 14.1244 31.318 14.1796C19.6607 15.7149 16.8162 18.6359 20.7 24.6682C21.4562 25.8404 21.5848 27.2948 21.711 28.7217L21.7113 28.7249C21.7266 28.8985 21.7419 29.0716 21.7583 29.2437C21.8802 30.5535 22.1983 32.1245 22.605 33.7612C21.9335 33.4942 21.1713 33.2647 20.3034 33.0787C20.201 33.0579 20.0182 32.9987 19.9295 32.9633C18.4507 32.4322 16.6629 33.0424 14.8798 33.6509L14.8798 33.651C14.0184 33.9449 13.1582 34.2385 12.3346 34.4029C6.53229 35.5521 2.95349 36.8624 1.34027 38.5598C0.421993 36.4053 -0.501558 34.2528 -1.43119 32.1027C-1.92319 30.966 -2.21694 29.753 -2.50987 28.5432C-3.3881 24.9163 -4.25906 21.3195 -10.4437 19.9013C-10.5461 19.8806 -10.732 19.8129 -10.8208 19.7775C-12.304 19.2157 -14.0914 19.8192 -15.8755 20.4216C-16.738 20.7128 -17.5997 21.0038 -18.4259 21.1627C-29.9454 23.3634 -32.7043 26.3113 -28.7097 31.7618C-27.928 32.8326 -27.7677 34.2155 -27.6111 35.5665L-27.5876 35.7688L-27.685 35.8013C-28.5537 36.0911 -29.4213 36.3806 -30.249 36.5393C-33.9196 37.2484 -36.703 38.0241 -38.6656 38.9219C-39.1661 37.6321 -39.6685 36.3431 -40.1732 35.0549C-40.6152 33.9251 -40.8565 32.7264 -41.0972 31.5312C-41.8193 27.9445 -42.5353 24.3882 -48.6502 22.8133C-48.7557 22.784 -48.9332 22.7132 -49.022 22.6779C-50.4781 22.0863 -52.2898 22.6266 -54.0962 23.1654L-54.0963 23.1655L-54.0963 23.1655C-54.9688 23.4257 -55.8399 23.6855 -56.6692 23.8173C-61.2735 24.5427 -64.5012 25.4239 -66.4822 26.5667Z" fill="#FDEB4D"/>
</svg>
