<svg width="232" height="330" viewBox="0 0 232 330" fill="none" xmlns="http://www.w3.org/2000/svg">
<path fill-rule="evenodd" clip-rule="evenodd" d="M143.867 1.28903C145.723 -2.21158 147.328 -5.77025 144.044 -11.1283C143.986 -11.2269 143.902 -11.4119 143.859 -11.5048L143.859 -11.5048L143.859 -11.5048L143.859 -11.5049L143.859 -11.5051L143.859 -11.5052C143.19 -13.0395 141.466 -13.8195 139.748 -14.5967C138.918 -14.9723 138.089 -15.3473 137.382 -15.8065C127.502 -22.226 123.406 -21.7345 122.386 -14.2925C122.188 -12.8234 121.297 -11.5262 120.431 -10.2642C120.346 -10.1404 120.261 -10.0169 120.178 -9.89369C118.283 -7.09855 116.261 -2.26638 114.791 1.24648C114.576 1.75961 114.373 2.2446 114.184 2.69097C113.284 4.81145 112.818 7.21881 112.362 9.57577C111.908 11.9203 111.464 14.215 110.612 16.1279C109.665 18.2515 108.693 20.3647 107.702 22.4711L107.511 22.3958C106.659 22.0607 105.808 21.7258 105.065 21.3321C94.758 15.8786 90.8573 16.0158 90.7257 21.6152C90.7021 22.711 90.0057 23.6324 89.3259 24.5317L89.3258 24.5319C89.2497 24.6325 89.1739 24.7329 89.0992 24.8332C87.5977 26.8475 86.1997 30.3963 85.1824 32.9791C85.0318 33.3613 84.8896 33.7223 84.7566 34.054C84.1309 35.6164 83.9586 37.4217 83.7899 39.189C83.6224 40.9444 83.4584 42.6624 82.8572 44.0674C80.8119 48.8261 78.5176 53.4972 76.2235 58.1678C72.7531 65.2334 69.2832 72.2979 66.6768 79.6627C63.7708 87.8733 61.62 96.3426 59.469 104.813C57.9058 110.968 56.3425 117.124 54.4892 123.181C52.0351 131.19 49.29 139.102 46.5449 147.013C44.0395 154.234 41.5341 161.455 39.2502 168.75C37.5134 174.303 35.5778 179.785 33.6423 185.267C29.6411 196.599 25.6402 207.93 23.3974 219.888C21.7042 228.9 17.7733 237.216 13.8463 245.523C12.4924 248.387 11.1389 251.25 9.87773 254.141C8.24269 257.879 10.9465 261.919 17.1973 265.193C14.1886 273.283 10.4464 281.121 6.70689 288.953C4.83913 292.865 2.97206 296.775 1.19741 300.715C-1.65967 307.053 2.42215 313.48 12.1647 317.384C20.9091 320.883 23.6454 315.617 25.5117 312.025L25.512 312.024C25.644 311.77 25.7717 311.524 25.8969 311.291C29.3952 304.766 32.6475 298.14 35.7173 291.44C37.6904 294.132 41.2578 296.601 46.2377 298.532C55.0107 301.932 57.4442 297.333 59.1085 294.187C59.2276 293.962 59.3427 293.744 59.456 293.537C60.3434 291.916 61.2109 290.288 62.0599 288.651C62.5665 288.877 63.0896 289.098 63.6288 289.315C64.0876 289.499 64.5285 289.662 64.9522 289.807C63.843 292.397 62.6939 294.975 61.545 297.552L61.5449 297.552L61.5447 297.552L61.5446 297.553L61.5444 297.553L61.5443 297.553L61.5441 297.554L61.544 297.554L61.5438 297.554L61.5437 297.555L61.5435 297.555L61.5434 297.555L61.5433 297.556L61.5431 297.556L61.543 297.556L61.5428 297.557L61.5427 297.557C60.022 300.968 58.5019 304.378 57.0757 307.814C54.7825 313.333 59.3113 318.975 69.2145 322.463C71.336 323.21 73.0799 323.516 74.5266 323.508C76.5082 326.342 80.2765 328.865 85.6086 330.712C90.1058 332.272 92.9186 331.819 94.8041 330.569C93.7107 333.087 92.6308 335.609 91.6 338.144C89.7432 342.716 92.4146 347.316 98.8166 350.713C97.9736 352.489 97.1416 354.268 96.3304 356.054C93.5936 362.088 97.7469 368.319 107.493 372.214C116.232 375.711 118.868 370.71 120.67 367.292C120.799 367.048 120.923 366.812 121.045 366.587C122.778 363.404 124.446 360.194 126.057 356.962C128.141 358.903 131.112 360.646 134.893 362.055C143.714 365.338 146.146 360.548 147.808 357.274L147.809 357.273C147.928 357.038 148.044 356.81 148.157 356.594C148.814 355.343 149.459 354.088 150.095 352.829C152.121 354.422 154.799 355.864 158.076 357.07C164.631 359.482 167.616 357.564 169.374 355.127C171.43 356.857 174.233 358.442 177.719 359.78C179.356 360.408 180.77 360.764 181.998 360.909C182.164 365.333 186.589 369.627 194.528 372.571C203.362 375.85 205.695 371.304 207.288 368.201C207.4 367.982 207.509 367.77 207.616 367.568C208.664 365.603 209.681 363.625 210.671 361.638C212.641 363.041 215.153 364.368 218.165 365.557C226.92 369.014 229.096 365.207 230.58 362.609C230.686 362.424 230.789 362.245 230.889 362.075C240.596 345.726 247.33 328.189 253.765 310.534C255.742 305.103 258.839 297.626 260.932 292.572C261.777 290.531 262.459 288.886 262.837 287.93C262.976 287.573 262.994 287.187 263.009 286.837C263.024 286.506 263.038 286.207 263.152 285.994C266.677 278.431 269.674 270.154 272.673 261.871C274.316 257.334 275.959 252.795 277.69 248.37C278.574 246.104 279.153 243.721 279.731 241.341C279.996 240.249 280.261 239.158 280.556 238.078C281.924 236.135 282.273 233.825 282.62 231.524C282.783 230.439 282.946 229.356 283.216 228.315C285.49 219.563 288.684 211.146 291.878 202.728C293.036 199.675 294.195 196.622 295.309 193.552C297.202 188.332 299.113 183.118 301.025 177.904C305.995 164.349 310.966 150.793 315.595 137.114C315.922 136.145 316.447 135.254 316.971 134.367C318.536 131.714 320.086 129.088 316.257 124.455C316.192 124.373 316.095 124.222 316.047 124.146C315.265 122.902 313.53 122.153 311.799 121.405C310.964 121.044 310.131 120.684 309.406 120.269C302.475 116.288 298.456 115.043 296.509 116.469C298.018 111.92 299.507 107.365 300.968 102.8C301.331 101.667 301.892 100.607 302.453 99.5509C304.133 96.3818 305.799 93.239 302.032 88.2275C301.976 88.1488 301.877 87.9774 301.832 87.8932C301.072 86.5342 299.327 85.8104 297.585 85.0882C296.745 84.7397 295.905 84.3916 295.178 83.9726C291.594 81.9031 288.779 80.6057 286.615 80.0793C285.837 78.7991 284.153 78.0809 282.473 77.364C281.631 77.0049 280.79 76.6462 280.065 76.2174C274.229 72.7782 270.436 71.4201 268.17 72.1264C267.833 71.0244 267.221 69.8289 266.235 68.5059C266.178 68.4272 266.079 68.2559 266.034 68.1717C265.279 66.8014 263.532 66.0816 261.79 65.3634C260.948 65.0166 260.108 64.6702 259.38 64.251C253.13 60.6416 249.213 59.3938 247.006 60.5056C246.158 59.8736 245.059 59.4135 243.961 58.954C243.12 58.6023 242.28 58.2509 241.555 57.823C233.867 53.2724 229.702 52.4259 227.874 55.2871C227.477 55.0923 227.095 54.8879 226.742 54.664C216.825 48.3469 212.768 48.7561 211.866 55.8736C211.692 57.2576 210.856 58.4544 210.035 59.6285C209.935 59.7722 209.834 59.9156 209.736 60.0589C208.988 61.14 208.222 62.547 207.482 64.0612C207.139 63.4267 206.704 62.7626 206.16 62.0641C206.095 61.9824 205.993 61.8196 205.948 61.7354C205.156 60.378 203.395 59.6963 201.638 59.0163L201.638 59.0163C200.789 58.6878 199.941 58.3598 199.204 57.9562C194.015 55.1039 190.429 53.8075 188.103 54.0745C188.785 51.8326 189.461 49.5888 190.131 47.343C190.485 46.156 191.04 45.0379 191.593 43.9229C193.252 40.58 194.896 37.2648 191.07 32.203C191.005 32.1213 190.906 31.9499 190.861 31.8658C190.086 30.482 188.329 29.7954 186.575 29.1101C185.727 28.7788 184.88 28.4478 184.145 28.0384C173.906 22.3197 169.897 22.8045 169.454 29.5475C169.364 30.8703 168.598 32.0327 167.85 33.1682L167.739 33.3373L167.648 33.3013C166.796 32.965 165.945 32.629 165.209 32.2185C161.939 30.401 159.307 29.2057 157.226 28.6323C157.671 27.3227 158.115 26.0123 158.556 24.7011C158.944 23.5515 159.53 22.4782 160.114 21.4079C161.866 18.1961 163.603 15.0116 159.931 9.87456C159.869 9.7843 159.779 9.61598 159.734 9.53183C158.998 8.14269 157.263 7.39208 155.533 6.64367C154.697 6.28221 153.863 5.92127 153.143 5.48916C149.154 3.08815 146.118 1.68895 143.867 1.28903Z" fill="#404040"/>
</svg>
